<?xml version="1.0" encoding="UTF-8" standalone="no"?>
<svg
   xmlns:dc="http://purl.org/dc/elements/1.1/"
   xmlns:cc="http://creativecommons.org/ns#"
   xmlns:rdf="http://www.w3.org/1999/02/22-rdf-syntax-ns#"
   xmlns:svg="http://www.w3.org/2000/svg"
   xmlns="http://www.w3.org/2000/svg"
   version="1.1"
   id="svg3389"
   viewBox="0 0 1000 1000"
   height="1000"
   width="1000">
  <defs
     id="defs3391" />
  <metadata
     id="metadata3394">
    <rdf:RDF>
      <cc:Work
         rdf:about="">
        <dc:format>image/svg+xml</dc:format>
        <dc:type
           rdf:resource="http://purl.org/dc/dcmitype/StillImage" />
        <dc:title></dc:title>
      </cc:Work>
    </rdf:RDF>
  </metadata>
  <g
     transform="translate(0,-52.362161)"
     id="layer1">
    <path
       id="path3408"
       d="m 681.60617,1033.1252 c -28.07012,-1.8557 -53.29625,-9.8276 -74.02562,-23.3939 -15.21438,-9.95685 -40.7312,-38.03126 -52.36996,-57.61894 -21.23848,-35.74381 -31.26398,-72.05075 -32.56469,-117.93162 -1.27578,-45.00311 5.77914,-84.6316 20.75467,-116.58172 16.44406,-35.08321 36.68017,-64.43457 60.00054,-87.02755 l 10.36421,-10.04087 -1.98118,-6.54089 c -2.17812,-7.19106 -13.53745,-30.82133 -14.8162,-30.82133 -1.11779,0 -43.86454,53.04683 -95.80491,118.88952 l -43.8001,55.52354 0.63656,6.16766 c 0.80343,7.78424 -0.58282,10.38263 -7.67125,14.37931 -18.50323,10.43256 -17.53685,9.53904 -32.41748,29.97369 -10.03896,13.78586 -13.89879,19.98539 -13.27349,21.3194 0.48496,1.03453 1.08724,5.51994 1.33841,9.96757 0.37623,6.66255 0.0936,8.35204 -1.60476,9.59389 -2.81668,2.05963 -1.58242,12.22607 2.44342,20.12529 3.56779,7.00039 3.77629,12.97073 0.63312,18.12584 -2.78251,4.56346 -6.94247,5.85418 -13.00944,4.03646 -6.83192,-2.04688 -11.52009,-1.68402 -13.42757,1.03929 -2.41974,3.45469 -17.64806,8.30789 -29.0134,9.24647 l -9.81825,0.81081 -5.20072,12.08117 c -23.07932,53.61378 -54.06999,91.23921 -88.63991,107.61691 -16.13247,7.6429 -24.5469,9.1716 -51.15594,9.2939 -27.33447,0.1255 -32.33729,-0.8226 -49.74526,-9.4277 C 123.08749,1009.895 105.67943,989.37139 92.798866,957.51451 79.183803,923.841 73.939457,889.27888 75.984117,846.69981 78.48758,794.56773 96.354158,742.35829 124.21683,705.75491 c 12.5851,-16.53298 31.84575,-34.45996 50.1845,-46.70946 19.1311,-12.77876 31.21902,-16.07166 58.90537,-16.04665 14.81925,0.0134 21.11734,0.49548 26.05705,1.99455 3.58289,1.0873 7.58027,2.28155 8.88308,2.6539 1.99292,0.56959 4.24846,-2.16938 14.21296,-17.25904 7.49607,-11.35171 15.32244,-21.49335 21.31934,-27.6263 l 9.47534,-9.69025 -2.56943,-10.15023 c -1.41317,-5.58263 -3.96446,-21.26874 -5.66955,-34.85802 -4.98984,-39.76748 -7.8386,-52.9463 -14.75052,-68.23897 -2.54547,-5.63196 -4.64254,-8.30352 -8.78293,-11.18902 -7.21836,-5.03066 -11.28802,-5.98771 -31.59715,-7.43074 -22.73929,-1.61571 -28.22459,-2.33673 -33.11839,-4.35341 -5.49093,-2.26268 -5.93885,-3.27884 -5.15327,-11.69135 0.81049,-8.67936 -0.4314,-11.53269 -10.46769,-24.05058 -9.67744,-12.07035 -10.51151,-14.06939 -11.22244,-26.89897 -1.51263,-27.29841 6.24196,-55.87306 21.54063,-79.37384 2.75654,-4.23443 5.18125,-9.85019 6.07947,-14.08049 3.80121,-17.90179 12.66863,-27.81638 42.35773,-47.3599 11.18272,-7.3613 22.16564,-14.95711 24.40657,-16.87959 2.24084,-1.92246 7.27221,-5.26424 11.18082,-7.42614 9.49758,-5.25334 13.56456,-8.53425 33.7473,-27.22461 33.66272,-31.17358 47.26929,-38.09918 71.073,-36.17535 18.36671,1.48442 29.03183,1.33997 31.1519,-0.42191 1.72467,-1.43332 1.61364,-2.09321 -1.20075,-7.13403 -4.08989,-7.3253 -3.20751,-10.51502 5.02936,-18.18129 6.6997,-6.23549 8.07544,-9.97941 4.69724,-12.78301 -2.27779,-1.89043 -2.25106,-6.71006 0.0869,-15.73403 6.76281,-26.098546 25.25096,-39.933292 53.36508,-39.933292 22.76143,0 43.63476,10.622115 62.02773,31.564852 12.02635,13.69352 17.76615,27.7164 17.76615,43.40432 0,9.50734 -2.08857,16.51093 -7.54838,25.31126 -6.75393,10.88632 -7.1461,11.26277 -10.43161,10.01362 -2.57009,-0.97713 -3.90583,-0.10601 -12.58261,8.20586 -7.3776,7.06731 -9.70732,10.05318 -9.70732,12.44139 0,2.24253 -2.4983,5.90538 -8.72422,12.79114 -7.84365,8.67478 -12.60304,15.54589 -12.59073,18.17693 0,0.52091 2.44905,1.95256 5.4369,3.18143 2.98776,1.22886 8.59191,5.15951 12.45364,8.73475 9.77701,9.05178 15.78937,21.76524 24.13689,51.0389 6.3441,22.24757 13.31358,38.82587 18.17025,43.22108 1.84055,1.66567 3.21754,1.51637 14.88694,-1.61427 26.90688,-7.21846 44.73899,-7.40623 59.55634,-0.62711 10.06788,4.6062 16.45723,12.1084 25.22804,29.62233 14.39568,28.74606 16.21581,29.64847 59.83472,29.66665 32.83943,0.0136 36.2499,0.54673 46.33755,7.24256 11.76582,7.80966 10.08182,18.35643 -6.13312,38.41164 -11.33327,14.01746 -13.55511,17.53745 -13.55511,21.47451 0,4.30927 4.17667,8.35556 10.61633,10.28494 2.74756,0.8232 4.78096,2.16781 4.78096,3.16149 0,2.34449 -12.60801,2.32149 -26.05706,-0.0475 -5.53704,-0.97536 -13.43129,-1.77411 -17.54257,-1.775 l -7.47516,-9.5e-4 0.77488,5.16735 c 0.97852,6.52521 -1.78862,17.71126 -6.59956,26.67802 -1.9617,3.65638 -8.06952,12.77731 -13.57287,20.26871 -5.50324,7.4914 -11.21813,15.8859 -12.69965,18.65446 -1.48151,2.76857 -3.33477,5.03376 -4.11834,5.03376 -0.78348,0 -5.16979,-1.95634 -9.74732,-4.34743 -7.09922,-3.70832 -8.74541,-4.15487 -11.19771,-3.03753 -2.8331,1.29086 -2.84885,1.38415 -1.08505,6.42014 1.31589,3.7571 1.75254,9.7362 1.64925,22.58032 -0.11761,14.61504 0.14291,17.47005 1.59397,17.47005 0.95407,0 10.95437,-0.85315 22.22292,-1.89589 27.8514,-2.57722 66.47618,-1.7282 82.95872,1.82354 21.84649,4.70759 37.92769,11.77898 54.23304,23.84778 41.45426,30.68345 66.83953,75.68556 76.45014,135.52784 2.58193,16.07719 3.64961,67.75795 1.71702,83.11174 -3.1403,24.94913 -12.05011,54.0158 -24.26241,79.15255 -18.76662,38.62737 -44.75638,69.13755 -79.50787,93.33678 -20.73472,14.4387 -57.40772,25.8508 -88.45252,27.5251 -6.66772,0.3596 -13.45554,0.7952 -15.08416,0.968 -1.62854,0.1728 -8.8238,-0.073 -15.98956,-0.5471 z M 224.42362,991.68602 c 15.74946,-6.57197 31.50389,-20.90263 45.45823,-41.35026 8.55974,-12.54271 20.81538,-34.20393 19.88088,-35.13841 -0.38386,-0.38388 -3.11377,-0.0896 -6.06649,0.65382 -2.95262,0.74348 -13.76599,1.89165 -24.02967,2.5515 -40.37207,2.59549 -45.863,3.28436 -51.39718,6.44806 -6.71106,3.83643 -11.05289,3.85409 -13.54222,0.0554 -1.68199,-2.56705 -1.81068,-5.78621 -1.04849,-26.21945 l 0.86892,-23.29313 -4.34507,0.81513 c -2.38977,0.44833 -8.72575,2.74559 -14.07998,5.10501 -8.04766,3.54633 -11.18739,4.3057 -18.11402,4.38106 -7.36853,0.0802 -8.88871,-0.29723 -12.60553,-3.12947 -3.23205,-2.46282 -4.60473,-4.69229 -5.83393,-9.47529 -2.23932,-8.71354 -1.89192,-32.49654 0.62777,-42.97139 3.56723,-14.82998 8.25024,-19.98628 35.37345,-38.94846 4.3991,-3.07547 9.90741,-7.5574 12.24057,-9.95984 4.43738,-4.56902 15.9842,-23.28262 41.86809,-67.85417 l 15.41896,-26.55128 -3.23071,-0.95654 c -4.40092,-1.30302 -23.13737,-0.0198 -31.73749,2.17381 -29.77722,7.5949 -55.05347,27.44021 -70.10518,55.04224 -20.71085,37.97958 -32.39429,92.6187 -28.85245,134.93248 2.42336,28.95207 7.42867,47.88713 18.80919,71.155 5.76826,11.7935 7.95106,14.91214 16.27079,23.24712 7.65722,7.67125 11.64,10.6023 19.60977,14.4311 15.73495,7.55936 33.31504,11.26405 44.34883,9.34579 3.25716,-0.5663 9.653,-2.58652 14.21296,-4.48932 z m 506.33564,-5.04129 c 30.53015,-7.15393 51.15995,-18.71631 71.92999,-40.31457 17.56596,-18.26629 30.2805,-37.96239 39.45875,-61.12508 17.88405,-45.13328 21.07877,-97.46324 9.25625,-151.61651 -8.30084,-38.02191 -42.30322,-78.3825 -78.85346,-93.59839 -13.23034,-5.5078 -46.51502,-8.87629 -57.51731,-5.8209 -6.02391,1.67282 -12.70004,7.65577 -12.70004,11.38124 0,4.58511 -1.91941,7.06106 -7.07192,9.12271 -3.09811,1.2396 -4.77218,2.65719 -4.77218,4.04091 0,3.26541 7.28281,28.16885 18.9524,64.80694 13.7362,43.12671 18.28433,58.92513 23.16868,80.4791 3.81161,16.82005 3.91023,17.81805 1.97163,19.96012 -2.95205,3.26201 -7.17713,5.1428 -13.67912,6.08927 -5.65953,0.82384 -5.75451,0.78265 -10.57681,-4.58386 -6.04205,-6.72398 -8.58074,-7.12871 -7.62103,-1.21499 0.56639,3.49059 0.10883,4.84121 -2.70891,7.99478 -3.1088,3.47935 -3.98679,3.79461 -10.56726,3.79461 -10.30645,0 -11.62701,-1.76031 -17.77149,-23.68822 -13.79683,-49.23707 -42.22179,-136.8183 -44.67008,-137.63438 -2.10814,-0.70272 -18.17512,14.99919 -25.65372,25.07093 -12.95769,17.45069 -22.81994,42.00504 -31.17739,77.62333 -10.64841,45.38237 -4.25791,103.7255 15.56531,142.10697 17.16577,33.23619 43.89328,57.62335 72.10287,65.78949 21.14731,6.12176 50.23823,6.65483 72.93484,1.3365 z M 270.92681,906.59565 c 9.29109,-1.38708 18.15593,-3.00217 19.69969,-3.58911 6.01913,-2.28849 10.20115,-11.01019 14.24522,-29.70861 l 2.81964,-13.03716 -3.25773,-1.68464 c -1.79168,-0.92654 -5.86983,-2.32421 -9.06254,-3.10595 -6.92949,-1.69669 -13.646,-4.90334 -15.86125,-7.57261 -3.43377,-4.13741 1.12113,-23.44405 12.55941,-53.23575 0.72343,-1.88404 -0.58243,-1.48034 -7.32566,2.26474 -17.68138,9.82012 -35.11121,23.91847 -39.11089,31.63537 -0.90691,1.74983 -2.44131,8.82638 -3.4098,15.72568 -1.81106,12.90169 -2.71301,15.71096 -5.89045,18.34808 -1.01279,0.84048 -1.84132,3.05341 -1.84132,4.91765 0,7.77599 -13.33927,15.38568 -17.35155,9.89857 -0.87942,-1.20273 -1.59903,-3.46179 -1.59903,-5.02014 0,-3.90824 -2.48752,-2.8344 -5.03194,2.17222 -1.44944,2.85226 -2.07139,6.86761 -2.07273,13.3825 l 0,9.30758 3.23511,-0.81194 c 3.77285,-0.94694 3.82459,-0.95303 6.53636,-0.76952 3.06298,0.20727 2.5532,2.11626 -2.07273,7.76158 -2.27998,2.78242 -4.14545,5.47559 -4.14545,5.98482 0,1.72617 41.79974,-0.3045 58.93945,-2.86336 z m 89.11189,-17.77083 c 2.48007,-0.72858 1.93067,-1.01884 -3.3826,-1.78695 -5.11318,-0.73922 -6.71307,-0.5476 -8.24852,0.98793 -1.75044,1.75041 -1.47588,1.89543 3.3825,1.78694 2.90814,-0.0649 6.61999,-0.50949 8.24862,-0.98792 z M 168.80013,869.71111 c 0.99131,-1.91694 1.73278,-6.5949 1.73278,-10.93164 0,-8.8954 1.71588,-14.6079 4.89972,-16.31181 2.24208,-1.19993 2.23989,-1.27415 -0.12458,-4.28015 -4.27233,-5.43137 -2.88924,-11.1915 5.75823,-23.98031 1.95283,-2.88813 3.32465,-5.61683 3.04847,-6.06378 -1.13354,-1.83404 -10.20258,1.17345 -15.6939,5.20444 -12.05336,8.84793 -18.8787,24.17764 -17.74133,39.84674 0.45059,6.20825 1.31741,8.83679 4.4309,13.43633 5.74467,8.4865 10.35733,9.52433 13.68971,3.08018 z m 61.66401,-47.76548 c 3.10117,-3.10114 4.02699,-5.01588 4.02699,-8.32805 0,-2.38592 -0.67026,-4.55825 -1.50529,-4.87867 -1.5912,-0.61064 -41.03421,9.29113 -44.3075,11.12299 -4.08283,2.28486 12.24248,5.7052 28.46114,5.96295 9.0763,0.14426 9.39353,0.0518 13.32466,-3.87922 z M 227.171,799.88128 c 14.34231,-2.83141 21.11189,-7.70791 23.35245,-16.82208 l 0.7955,-3.23566 -6.34648,2.18351 c -3.49057,1.20093 -9.79868,3.92615 -14.01792,6.05602 -7.77875,3.92668 -23.70491,13.98715 -23.70491,14.97424 0,0.61307 4.19786,-0.052 19.92136,-3.15603 z m 476.74009,-2.03842 c 0.29317,-0.48857 -8.09139,-30.20248 -18.6323,-66.0309 -20.49491,-69.66196 -20.05501,-68.58069 -26.10221,-64.15893 -2.20141,1.60977 -1.66805,3.70995 15.99814,62.99463 14.87062,49.90296 18.86066,61.95854 21.41576,64.70642 3.02728,3.25579 6.21084,4.33811 7.32061,2.48878 z M 286.26863,774.81652 c 12.22692,-5.02745 17.76863,-12.04364 15.06918,-19.07838 -0.94777,-2.4697 -7.9394,-0.6987 -14.05315,3.55968 -4.42975,3.08549 -14.89238,16.77505 -14.89238,19.4856 0,1.40358 2.67521,0.6388 13.87635,-3.9669 z m -50.32692,-9.38212 c 11.85842,-5.93611 23.17871,-12.02836 25.15625,-13.53831 4.84264,-3.69745 10.32011,-13.07882 15.32111,-26.24063 2.27674,-5.99177 4.95252,-12.46633 5.94621,-14.38789 1.78709,-3.45597 1.75082,-3.54522 -3.35549,-8.25208 -5.4285,-5.00374 -11.25508,-8.51248 -14.13601,-8.51248 -0.95369,0 -12.80228,17.25587 -26.70803,38.89671 -21.87485,34.04246 -26.87777,42.82764 -24.38939,42.82764 0.3326,0 10.30703,-4.85683 22.16535,-10.79296 z m 221.01568,-54.59768 c 25.32981,-29.90219 125.67865,-157.28165 132.13339,-167.72564 1.11989,-1.81206 -1.43436,-14.42559 -2.92122,-14.42559 -0.60935,0 -30.28547,9.64126 -65.94693,21.42502 -60.79156,20.08765 -65.10637,21.69567 -69.12457,25.76093 -4.3275,4.37825 -4.94096,5.77197 -34.23035,77.7694 -3.71013,9.11997 -9.83304,23.24406 -13.60647,31.38689 -3.77343,8.14282 -7.53426,17.34486 -8.35745,20.44898 -1.49602,5.64144 -1.49507,5.64504 2.2502,8.48659 5.90993,4.48386 10.64449,5.16765 32.76488,4.73214 l 20.72727,-0.40809 6.31125,-7.45063 z M 321.67186,683.37124 c -1.96284,-4.69776 -3.73524,-5.45362 -4.81456,-2.05318 -0.82825,2.60985 1.07531,8.12641 3.88216,11.25019 1.91683,2.13326 2.00361,2.08315 2.35244,-1.35825 0.19923,-1.96526 -0.43981,-5.49271 -1.42004,-7.83876 z M 303.38247,662.2457 c -1.10796,-1.10796 -11.06644,-3.44544 -11.76047,-2.76045 -0.17222,0.16997 2.49268,2.18136 5.92205,4.46978 5.75145,3.83803 6.26582,3.97924 6.63145,1.82043 0.21804,-1.28719 -0.13881,-2.87557 -0.79303,-3.52976 z m 11.83102,-20.40897 c 0.80191,-3.01592 -0.67951,-12.0416 -3.17238,-19.3281 -1.10939,-3.24256 -7.0092,1.74869 -10.98482,9.29316 -4.30565,8.17083 -4.41543,7.83787 3.90727,11.85075 6.30266,3.03889 9.09052,2.54504 10.24993,-1.81581 z m 321.04214,-44.1593 c 0.2483,-4.39713 0.01,-8.92751 -0.53279,-10.0675 -1.18443,-2.49437 -7.46495,-2.82559 -8.37969,-0.44194 -1.55101,4.04191 4.27825,18.5042 7.45846,18.5042 0.5515,0 1.20581,-3.59765 1.45402,-7.99476 z m 19.65281,-29.46377 c 0.19762,-1.38513 -0.33536,-4.20248 -1.18442,-6.26076 l -1.54367,-3.74235 -1.93669,6.62241 -1.93659,6.6224 3.12102,-0.36164 c 2.13373,-0.24724 3.23472,-1.15836 3.48035,-2.88006 z m -17.53321,-5.77246 c 0,-1.62857 -0.44009,-2.96102 -0.97794,-2.96102 -0.53785,0 -2.22977,1.33245 -3.75968,2.96102 l -2.78174,2.96103 3.75968,0 c 3.22069,0 3.75968,-0.42447 3.75968,-2.96103 z m -8.22666,-11.09793 c 2.89611,-1.8696 7.05063,-5.28059 9.23228,-7.57999 l 3.96665,-4.18074 -5.34668,-3.13335 c -8.91038,-5.22185 -8.87821,-4.90745 -2.01326,-19.68049 6.57713,-14.15349 9.81548,-22.50456 9.03095,-23.2891 -0.26863,-0.26866 -2.98279,1.41547 -6.03135,3.74251 -7.43259,5.67341 -20.10408,12.97724 -26.75443,15.42125 l -5.41523,1.99011 2.82757,10.28314 c 1.55512,5.65573 3.60044,12.45416 4.54497,15.10764 2.14299,6.01995 7.7059,14.71828 9.41281,14.71828 0.70405,0 3.64961,-1.52967 6.54572,-3.39926 z M 515.5567,524.80871 c 33.09519,-11.40112 60.45381,-21.01013 60.797,-21.35336 0.3433,-0.34321 0.0353,-1.72422 -0.68438,-3.06891 -1.22605,-2.29091 -2.90069,-25.04149 -2.55186,-34.66782 0.19971,-5.50964 4.43585,-15.20425 6.64366,-15.20425 0.924,0 3.50107,1.59896 5.72683,3.55323 2.22585,1.95428 4.93084,3.55323 6.01131,3.55323 2.17907,0 8.97481,-4.64156 8.97481,-6.1299 0,-0.52072 -3.86412,-2.88115 -8.58694,-5.2454 -11.13031,-5.57177 -21.54435,-13.00438 -27.93513,-19.93757 -5.44979,-5.91234 -10.82378,-16.09863 -10.84278,-20.55229 -0.0305,-7.18647 -7.56824,-15.68759 -19.22675,-21.68466 -2.42557,-1.24769 -6.15651,-3.99711 -8.29091,-6.10982 l -3.88083,-3.84132 -17.76615,0.59221 c -34.09383,1.13646 -66.63151,-1.32028 -95.11985,-7.18199 l -11.19838,-2.30415 -18.79822,10.94812 c -10.339,6.02147 -18.63583,11.48701 -18.43746,12.14565 0.19848,0.65861 6.37895,5.72787 13.73459,11.265 9.14455,6.88386 13.88036,11.27878 14.97581,13.89795 2.18013,5.21254 11.0232,14.44791 22.68468,23.69093 13.6311,10.80418 15.11328,14.91951 12.05116,33.46124 l -1.34433,8.14046 7.65149,15.18371 c 4.20836,8.35105 10.77556,23.61439 14.59386,33.91855 5.40549,14.58772 7.35211,18.61594 8.794,18.19766 1.01852,-0.29545 28.92969,-9.86538 62.02477,-21.2665 z M 338.40509,512.0342 c 0.57154,-4.26144 0.32047,-4.5908 -11.06473,-14.51679 -6.4073,-5.58603 -11.8168,-9.9892 -12.02119,-9.78483 -0.37536,0.37537 8.77301,44.8234 9.87839,47.99525 0.86186,2.47265 12.49765,-18.40161 13.20753,-23.69363 z M 626.5823,493.71136 c 11.4084,-7.58433 19.77109,-17.2072 20.77576,-23.90645 1.05365,-7.02646 0.0792,-16.01251 -2.0691,-19.07957 -1.74442,-2.49054 -1.84762,-2.45351 -12.67282,4.5471 -11.29194,7.30245 -25.16599,17.94967 -29.02152,22.27169 -2.03387,2.27999 -2.05736,2.62849 -0.29604,4.38979 2.15989,2.15988 2.46643,7.52901 0.76801,13.45106 -0.73927,2.57759 -0.73698,4.75541 0.01,6.14436 1.10978,2.07365 1.39016,2.06943 7.74409,-0.11666 3.62593,-1.24749 10.27027,-4.71311 14.76522,-7.70135 z M 758.48542,431.2041 c 2.37955,-3.45495 4.63357,-8.1747 5.00903,-10.4883 0.79665,-4.90931 0.14434,-5.2361 -12.96829,-6.49638 -10.5874,-1.01761 -47.57983,1.8493 -45.87398,3.5552 0.67942,0.67937 5.07986,1.38991 9.77873,1.57899 13.93296,0.56065 25.92579,5.45423 34.03073,13.886 2.24495,2.33544 4.44521,4.24624 4.88951,4.24624 0.44429,0 2.75472,-2.82679 5.13427,-6.28175 z m -112.7219,-30.17741 c 1.37555,-1.14157 3.14432,-0.95061 8.6088,0.92943 8.16929,2.81064 7.84672,2.78747 10.61595,0.76254 2.08552,-1.52499 1.92791,-2.09166 -3.21324,-11.54801 -2.97353,-5.46938 -6.03413,-12.34275 -6.80128,-15.27416 -4.24321,-16.21413 -15.35118,-23.77707 -35.03665,-23.85482 -5.25523,-0.0207 -12.9069,0.62171 -17.00377,1.42772 l -7.44881,1.46545 0.65947,4.06349 c 1.92714,11.87584 12.00257,23.54751 33.31017,38.58751 11.24935,7.94041 13.09688,8.88179 13.78432,7.02352 0.43656,-1.18023 1.57288,-2.79243 2.52504,-3.58267 z M 504.8999,333.1578 c -1.17689,-2.00921 -4.64855,-6.0066 -7.71497,-8.88308 -5.72845,-5.37374 -9.48164,-6.44634 -14.0331,-4.01044 -3.21544,1.72084 -6.40386,8.18211 -4.81953,9.7665 2.32446,2.32446 17.30849,6.71892 23.01431,6.74956 l 5.69294,0.0306 -2.13965,-3.65312 z"
       style="fill:#141414" />
  </g>
</svg>
