<?xml version="1.0" encoding="utf-8"?>
<!-- Generator: Adobe Illustrator 15.1.0, SVG Export Plug-In . SVG Version: 6.00 Build 0)  -->
<!DOCTYPE svg PUBLIC "-//W3C//DTD SVG 1.0//EN" "http://www.w3.org/TR/2001/REC-SVG-20010904/DTD/svg10.dtd">
<svg version="1.0" id="Layer_1" xmlns="http://www.w3.org/2000/svg" xmlns:xlink="http://www.w3.org/1999/xlink" x="0px" y="0px"
	 width="223.04px" height="222.2px" viewBox="0 0 223.04 222.2" enable-background="new 0 0 223.04 222.2" xml:space="preserve">
<path fill-rule="evenodd" clip-rule="evenodd" fill="#EBA62E" d="M21.462,115.636h71.431c8.348,0,15.027,7.05,15.027,15.771v70.131
	c0,8.721-6.679,15.771-15.027,15.771H21.462c-8.163,0-15.028-7.05-15.028-15.771v-70.131
	C6.434,122.686,13.298,115.636,21.462,115.636z"/>
<linearGradient id="SVGID_1_" gradientUnits="userSpaceOnUse" x1="169.9478" y1="111.791" x2="162.3263" y2="220.7828">
	<stop  offset="0" style="stop-color:#B7222D"/>
	<stop  offset="1" style="stop-color:#A91826"/>
</linearGradient>
<path fill-rule="evenodd" clip-rule="evenodd" fill="url(#SVGID_1_)" d="M130.37,116.192h71.43c8.163,0,15.028,7.051,15.028,15.771
	v70.132c0,8.719-6.865,15.769-15.028,15.769h-71.43c-8.35,0-15.028-7.05-15.028-15.769v-70.132
	C115.342,123.243,122.021,116.192,130.37,116.192z"/>
<path fill="#FEFEFE" d="M148.923,129.551c0-2.597-0.371-5.38,0-7.977c0.928,0.742,1.856,1.483,2.783,2.226
	c1.298,0.742,2.041,2.041,2.968,3.154c0.186-0.556,0.371-0.927,0.557-1.485c1.298,0.929,2.226,2.228,2.968,3.711
	c0.185-0.741-0.185-2.041,0.742-2.597c1.298,0,1.298,1.669,2.412,2.412c0.742-0.186,0.927-1.114,1.483-1.485
	c0.929,0.742,1.114,2.227,2.041,3.154c0.928-0.742,1.3-1.855,2.412-2.412c1.671,0.928,2.598,2.412,4.082,3.339
	c0.371-0.371,0.557-0.742,0.929-1.298c1.298,1.114,1.854,2.783,2.968,3.897c0.556-1.485,2.226-1.856,2.968-3.155
	c1.114,1.114,2.227,2.412,3.339,3.526c0.371,0.556,1.114,0.556,1.671,0.741c0.185,0.186,0.371,0.557,0.371,0.742
	c1.299-0.371,1.299-2.041,2.411-2.783c0,0.371,0.186,1.669,0.742,1.113c0.929-2.041,1.485-4.453,3.154-5.936
	c0.742-0.558,2.041-1.3,2.412-0.187c0.371,1.67,0.927,3.526,2.226,4.638c0.558,0,0.929-0.185,1.485-0.37
	c1.114,0.741,0.927,2.226,1.67,3.153c0.557,0.371,1.669,0,2.041,0.928c0.927,1.112,0.558,2.597,0.743,3.896
	c0.371,0.556,1.484,0.187,1.855,0.928c0.185,1.113,0,2.227-0.186,3.34c0.742,0.185,1.485,0.185,1.856,0.556
	c1.298,1.298,2.041,3.154,1.112,4.638c0.186,0.187,0.557,0.558,0.742,0.743c0,0.928,0.187,1.856,0,2.783
	c-0.371,0.742-0.927,1.298-1.113,2.041c0.928,0.743,1.855,0.927,2.598,1.67c0.371,1.113,0.371,2.227,0.371,3.154
	c-0.186,1.669-1.298,2.968-1.856,4.267c0.187,0,0.742,0.186,0.929,0.186c0.185,1.299,0,2.783-1.114,3.711
	c-1.298,1.484-3.525,1.113-5.195,1.855c-0.743,0.372-0.928,1.112-1.485,1.67c0.929,0.371,1.669,0.556,2.598,0.371
	c1.298-0.186,2.412-0.929,3.71-0.371c0,0.556-0.557,1.669,0.185,2.041c1.3,0.185,2.412-0.557,3.71-0.557
	c1.485,1.3,2.041,3.525,2.227,5.381c-0.742,0.556-1.669,0.556-2.412,0.927c-0.742,0.927,0,2.226-0.742,3.154
	c-0.927,0.928-2.226,1.112-3.339,1.855c-0.371,0.556-0.556,1.113-0.927,1.484c-0.371,0.556-0.929,0.556-1.485,0.743
	c-1.298,0.185-1.669,1.483-2.412,2.412c-2.041,0.37-4.267,0-6.307,0.556c-1.485,0.556-2.783,1.855-4.453,1.484
	c-1.113,0-1.485-0.929-1.856-1.671c-0.556-1.112-2.226-0.37-2.783-1.483c-0.742-1.856,0-3.71-0.371-5.566
	c-1.854-1.298-4.453-1.485-6.865-1.485c1.671,3.526,3.34,7.051,4.639,10.762c0.371,0.743,0.742,1.67,1.298,2.412
	c1.298,2.041,1.113,4.638,2.597,6.679c1.484,2.041,2.041,4.639,3.711,6.68c0.741,1.112,1.855,2.226,1.855,3.711
	c-0.556,0.742-1.299,1.298-2.226,1.483c-0.742,0.186-0.929-0.556-1.113-1.112c-0.928-2.227-2.597-3.897-3.155-6.309
	c-0.556-2.412-1.669-4.638-2.412-7.05c-0.556-1.669-1.299-3.339-1.67-5.195c-0.556-2.226-1.854-4.082-2.783-6.307
	c-0.742-1.671-2.041-3.154-3.339-4.639c-0.927,1.485-2.597,2.968-2.412,4.824c0.558,2.041,2.968,2.597,3.897,4.453
	c0.371,0.742-0.187,1.669-0.371,2.412c-0.558,1.298,0.556,2.783-0.187,4.082c-1.298,0.742-3.153,0.742-4.267,1.856
	c-0.556,0.556-1.113,0.927-1.298,1.669c-0.371,0.928-0.742,2.041-1.67,2.412c-0.742,0.741-1.855,0.556-2.969,0.741
	c-0.742,0.558-1.298,1.3-2.226,1.3c-1.67,0.556-3.339-0.558-4.824-1.3c-1.669-0.741-3.525-0.185-5.009-0.927
	c-0.743-0.371-0.929-0.927-1.114-1.67c-0.371-1.484-0.186-2.968-0.371-4.453c0.185-0.927-0.742-1.298-1.114-1.854
	c0-1.485,1.67-1.856,2.227-2.97c0.743-1.483,2.041-2.597,2.412-4.082c-0.928-0.742-2.227-0.742-3.154-0.185
	c-0.742,1.112-0.742,2.412-1.669,3.339c-1.299,0.927-2.968,1.114-4.453,1.114c-0.927,0-1.669,0.371-2.598,0.371
	c-2.041,0.185-4.452-0.371-5.38-2.227c-1.112-1.114-0.371-2.597-0.742-3.897c-0.741-1.298-2.597-0.741-3.524-1.669
	c-0.557-0.741-0.186-1.67-0.186-2.412c-0.927-0.37-2.597,0.186-2.783-1.112c-0.37-1.669,0.371-3.154,0.186-4.639
	c-0.556-0.556-1.113-0.741-1.484-1.112c-0.372-0.742-0.185-1.669-0.372-2.412c-1.298-0.371-2.041-1.669-2.226-2.969
	c0.185-1.112,0.556-2.226,0.371-3.339c-0.186,0-0.742,0-0.927,0c-1.114-1.669,0-3.525,0-5.195c-0.929-1.112-2.227-2.041-2.227-3.71
	c-0.185-0.742,0.742-0.927,1.485-1.112c1.298-0.186,2.968-0.371,4.453-0.186c0.927,0.371,1.854,0.927,2.782,1.113
	c0-0.371,0-0.927,0-1.298c1.485-0.742,2.783,0.371,4.083,0.556c0.37-0.742,0.37-1.669,0.741-2.597
	c-0.741-1.67-1.854-3.341-2.041-5.195c1.3-0.371,2.599-0.556,3.897-0.556c0.742,0,1.298-0.743,1.113-1.3
	c0-1.112-0.186-2.041-0.557-2.968c0.371-0.185,0.742-0.371,0.929-0.556c0.185-1.485-0.187-3.154,0-4.639
	c0.927,0,2.226,0.927,2.968-0.185c0.556-1.113-0.186-2.598,0.185-3.896c0.558,0,1.3,0.371,1.856,0.557
	c-0.186-1.484-0.556-2.783-0.742-4.082c0-0.186,0-0.371,0.186-0.371c1.112,0,1.854,0.927,2.968,1.298
	c-0.558-0.557-0.927-0.927-1.485-1.484c-0.185-0.743-0.371-1.67,0-2.412C147.811,129.551,148.367,129.551,148.923,129.551z"/>
<path fill="#A91826" d="M151.15,125.84c1.112,0.742,1.854,2.041,2.783,2.968c1.298,1.299,2.041,3.154,2.782,4.824
	c2.227-0.927,2.783-3.339,4.268-4.824c-0.187,2.783-0.927,5.752-2.968,7.793c0.741,1.112,1.483,2.411,1.854,3.524
	c1.114-2.041,1.485-4.453,1.299-6.865c0-0.927,0.928-1.483,1.484-0.927c0.743,0.186,0.743,0.927,0.743,1.484
	c0,2.412-0.558,4.824-1.485,7.05c-0.185,0.742-0.927,1.484-0.371,2.227c1.484,3.153,2.412,6.679,3.525,10.204
	c0.556-1.485,1.114-2.97,1.114-4.453c-0.187-3.71-0.187-7.236,0-10.761c0-0.928,0.185-1.67,0.741-2.412
	c1.485,2.969,1.114,6.494,1.3,9.834c0,3.524-0.186,7.421-2.227,10.761c0.558,1.484,1.67,2.783,2.227,4.453
	c0.743,2.041,1.855,3.71,2.968,5.566c0.927-1.856,1.485-3.896,1.856-5.752c0.37-1.855,1.298-3.153,1.854-4.823
	c0.371-1.671,0.927-3.154,1.114-4.824c0.556-3.154,0.927-6.309,1.483-9.463c0.371-1.299,0.371-2.782,0.557-4.267
	c0.185-0.556,0.556-0.742,0.743-1.113c0.371,1.856,0.741,3.525,0.741,5.38c-0.37,3.525-1.112,7.236-1.483,10.761
	c-0.186,1.299-0.371,2.412-0.927,3.71c-0.557,1.856-1.856,3.526-2.227,5.38c-0.556,2.598-1.113,5.195-2.783,7.236
	c0.371,1.484,0.929,2.968,1.67,4.453c0.742,1.113,1.484,2.412,1.856,3.896c1.298-1.299,2.968-2.227,4.082-3.711
	c0.927-1.298,1.854-2.411,2.783-3.71c-1.114-1.112-2.227-1.855-3.339-2.783c-0.742-1.112-0.929-2.226-1.485-3.339
	c-0.371-1.483-0.927-3.154-0.556-4.638c0.927,1.67,1.299,3.711,2.411,5.195c0.929,1.483,2.599,2.412,3.897,3.524
	c0.927-2.226,1.669-4.453,2.412-6.679c0.556-1.485,0.742-2.968,1.298-4.268c-1.298-1.669-2.783-2.782-4.082-4.453
	c-0.743-1.298-1.485-2.782-2.041-4.267c-0.185-0.556,0-1.114,0-1.485c2.227,2.598,4.082,5.195,6.494,7.422
	c0.927-2.598,2.227-5.195,2.597-7.979c-2.411-0.371-4.082-2.597-4.823-4.824c-0.371-0.743-0.371-1.485-0.187-2.226
	c1.67,1.483,2.968,3.71,5.009,5.009c1.113-4.268,0.186-8.906,1.113-13.172c0.187,0,0.372-0.187,0.558-0.372
	c0.185,2.597,0.741,5.194,0.927,7.606c1.114-0.742,2.041-2.041,3.339-2.597c-0.927,2.041-1.485,4.082-3.154,5.566
	c-0.741,2.226-0.371,4.638-0.927,7.05c1.669-1.856,2.597-4.453,4.268-6.309c0.37-0.556,0.928-0.741,1.484-0.741
	c-1.299,2.968-2.041,6.308-4.453,8.535c-0.742,0.927-1.669,1.483-2.597,1.854c-0.927,2.227-1.298,4.824-1.855,7.236
	c3.896-2.783,7.422-6.309,11.504-9.09c0.37-0.187,1.112-0.372,1.669-0.558c-1.113,2.598-3.154,4.453-5.381,6.123
	c-1.854,1.113-3.153,2.783-4.823,4.082c-1.3,0.743-2.412,1.67-3.897,2.227c-0.927,2.597-1.669,5.195-2.783,7.607
	c1.856-0.558,3.711-1.3,5.38-2.412c0.929-0.557,2.041-1.485,3.525-1.113c2.968-1.67,6.123-3.339,9.277-5.01
	c0.742-0.37,1.669-0.928,2.783-0.741c0,0.371-0.372,0.741-0.743,1.112c-2.412,2.969-6.309,3.896-9.462,5.752
	c-2.041,1.112-4.268,2.226-6.494,2.968c-1.669,0.742-3.34,1.669-5.381,1.669c-1.112,1.299-2.041,2.968-3.153,4.267
	c-0.742,0.929-1.669,1.485-2.598,2.228c3.154-0.372,6.494,0.556,9.648,0.371c0.743-1.856,1.856-3.711,3.897-4.453
	c1.483-0.556,3.153-2.041,5.009-1.669c-1.113,1.483-2.412,2.783-4.082,3.71c-1.298,0.556-2.227,1.484-2.783,2.412
	c2.783-0.187,5.751-0.371,8.72-0.743c-0.185-1.113,0.186-2.226,1.3-2.783c0.927-0.371,2.226-1.113,3.153-0.371
	c-0.927,0.929-2.041,1.67-2.597,2.783c3.339,0,6.865-1.485,10.019,0c-2.227,0.556-4.268,1.485-6.494,1.856
	c1.112,0.741,2.597,1.298,2.968,2.782c-1.856-0.741-3.71-1.298-5.38-2.597c-3.71,0.556-7.421,0.927-11.133,1.113
	c0.929,1.114,1.671,2.412,2.969,3.154c1.67,0.928,3.153,2.226,5.009,2.782c1.113,0.371,2.412,0.557,2.968,1.856
	c-2.041-0.187-4.082-0.187-5.937-0.927c-1.669-0.929-3.154-1.856-4.639-2.97c-1.112-1.112-1.854-2.597-2.968-3.896
	c-0.742-0.186-1.484-0.186-2.226-0.186c0.927,1.113,2.041,2.041,2.968,3.154c1.298,1.67,1.854,3.71,2.226,5.566
	c-2.412-2.969-5.194-5.566-7.606-8.721c-2.598-0.371-5.381-0.371-7.979,0.186c-0.742,1.114-1.484,2.226-2.041,3.524
	c-0.556,1.3-1.67,2.041-2.597,3.154c1.112,2.227,2.412,4.639,3.524,6.865c0.186,1.114,0.742,2.412-0.185,3.34
	c-0.927-1.484-2.041-2.782-2.598-4.453c-0.556-1.298-1.483-2.412-2.226-3.524c-0.371,0.556-1.113,0.927-1.113,1.67
	c0.186,1.669,0.557,3.154,0.742,4.824c0.187,2.783-0.742,5.565-1.856,8.164c-0.185,0.371-0.556,0.556-0.927,0.927
	c0-1.856,0.187-3.71,0.371-5.566c0-2.041-0.185-4.082-0.185-6.123c-0.929,1.3-1.856,2.412-3.155,3.154
	c0.185,1.485,0.556,2.783,0.185,4.268c-0.371,1.298-0.556,2.968-1.483,4.082c0,0-0.186,0-0.371,0c-0.186-2.227,0-4.453-0.186-6.68
	c-1.855,1.856-3.896,3.896-6.494,4.639c1.484-2.783,3.896-4.824,6.122-7.236c-2.041-0.371-4.082,0-5.936-0.557
	c-0.558,0-0.742-0.37-1.114-0.741c1.485-0.558,3.155-1.114,4.638-0.929c1.671,0,3.154,0.371,4.639,0.558
	c0.743-0.929,1.485-1.856,2.226-2.97c-2.597-0.741-5.194,0.558-7.606-0.556c1.112-1.113,2.783-1.484,4.267-1.298
	c1.485,0,2.968,0.185,4.639,0.185c0.741-1.114,1.669-2.226,2.226-3.524c0.743-0.557,1.67-1.113,2.227-2.041
	c0.556-0.928,1.112-2.041,1.67-3.154c-2.227-0.371-4.639-0.742-6.865-1.484c-2.412,1.669-4.824,3.154-7.236,4.824
	c-1.298,0.927-2.783,1.856-4.268,2.412c-2.226,0.742-4.452,2.041-6.679,2.597c-2.041,0.371-4.267,1.484-6.494,0.928
	c2.783-1.671,5.938-2.783,8.906-4.082c1.67-0.742,3.526-1.113,5.009-2.041c1.669-1.113,3.525-1.671,5.195-2.783
	c1.299-0.743,2.412-1.67,3.526-2.783c-2.783-1.299-6.123-1.485-9.092-2.228c-2.041,0.929-3.896,2.599-6.123,3.155
	c-2.041,0.557-3.896,1.669-5.937,1.484c-1.67,0-3.339,0.185-4.824-0.742c3.154-0.742,6.308-0.927,9.277-2.041
	c1.484-0.556,2.783-1.484,4.267-2.412c-1.855-0.557-3.711-1.299-5.38-2.041c-2.783-1.298-5.938,0.371-8.906-0.371
	c-1.485-0.556-3.154-0.556-4.267-1.855l-0.186-0.186c2.968-0.185,5.751,0.371,8.534,0c-1.669-0.927-3.154-2.226-4.638-3.339
	c-1.3,0.556-2.783,0.742-4.268,0.742c-1.298,0-2.597,0.185-3.524-0.742c1.669-0.742,3.339-1.113,5.009-1.298
	c-2.598-1.3-4.453-3.526-5.566-5.938c-0.371-0.372-0.185-0.928-0.185-1.299c2.041,1.67,3.896,3.339,5.937,5.009
	c1.669,0.927,3.34,1.484,4.824,2.412c-0.556-1.485-1.854-3.155-1.298-4.824c0.927,1.113,1.67,2.227,2.597,3.339
	c0.742,0.929,0.928,2.412,1.484,3.525c2.041,1.856,4.824,2.783,7.421,3.897c-1.112-2.412-2.597-4.639-3.524-7.051
	c0-0.371-0.186-1.112,0.371-1.112c2.226,2.597,4.823,5.38,5.38,9.091c3.153,0.556,6.494,1.113,9.646,1.669
	c-0.927-2.041-2.226-3.896-2.782-6.123c1.483,0.372,2.226,1.856,3.339,2.968c1.113,0.929,1.483,2.412,1.669,3.897
	c3.526,1.484,7.05,2.597,10.761,2.783c-0.556-2.227-2.226-4.082-3.153-6.309c-0.371-0.927-0.557-1.854-1.113-2.597
	c-2.412-0.743-4.639-1.67-7.05-2.412c-2.598-0.927-5.195-2.041-7.978-2.783c-3.526-0.927-6.679-3.339-9.462-5.937
	c-1.114-1.113-2.412-1.671-3.341-2.783c1.856,0.743,3.897,1.483,5.753,2.412c2.041,1.298,4.082,3.153,6.494,3.896
	c2.782,0.927,5.565,2.041,8.348,2.968c2.041,0.742,4.082,1.485,6.123,2.042c-1.113-2.412-2.226-5.01-3.525-7.422
	c-0.37-0.742-0.556-1.483-0.556-2.226c-3.154-1.67-6.679-2.598-9.648-4.639c-2.412-1.67-5.194-3.339-6.864-5.937
	c-0.371-0.371-0.371-0.927-0.371-1.484c2.597,1.669,5.194,3.339,7.606,5.195c2.598,2.041,5.751,2.968,8.721,4.267
	c-0.558-2.226-1.114-4.452-2.227-6.308c-0.927-1.114-1.299-2.412-1.854-3.525c-2.041,0-4.268-0.743-5.938-2.041
	c-1.113-1.114-2.968-1.854-3.525-3.524c2.783,1.112,5.381,2.597,8.35,3.524c-0.742-1.67-1.669-3.339-2.412-5.009
	c-1.669,0.185-3.154-0.556-4.638-0.927c-1.3-0.557-2.783-0.928-3.71-2.227c1.669,0.187,3.153,0.743,4.638,1.114
	c0.927,0,2.041-0.187,2.968-0.371c-1.114-0.928-1.854-2.226-2.226-3.526C152.448,129.366,150.963,127.881,151.15,125.84z"/>
<path fill="#FEFEFE" d="M47.622,121.016c3.71,6.123,7.236,12.431,10.762,18.554c-1.67,0-3.339,0-5.01,0
	c-0.741,0-1.483,0.371-2.226,0.743c-1.114,0.741-2.412,1.483-3.711,2.041C47.622,135.302,47.622,128.252,47.622,121.016z"/>
<path fill="#FEFEFE" d="M69.33,140.869c5.194-5.009,10.204-10.02,15.398-15.028c-1.855,6.865-3.711,13.729-5.565,20.779
	c-1.485-1.298-2.783-2.783-4.268-4.082C73.04,141.796,71.184,141.425,69.33,140.869z"/>
<path fill="#FEFEFE" d="M17.936,143.652c6.865,1.855,13.916,3.525,20.78,5.38c-1.299,1.485-2.782,2.783-3.896,4.268
	c-0.742,1.669-1.114,3.71-1.67,5.565C27.956,153.671,22.947,148.661,17.936,143.652z"/>
<path fill="#FEFEFE" d="M56.898,145.136c4.638-0.742,9.462,0,13.73,2.041c5.195,2.597,9.277,7.05,11.318,12.616
	c3.153,7.977,1.112,17.81-5.01,23.933c-3.339,3.526-7.792,5.938-12.616,6.68c-5.009,0.927-10.389,0.185-14.842-2.227
	c-5.195-2.597-9.277-7.235-11.133-12.616c-1.483-3.896-1.67-8.349-0.927-12.245c1.114-5.195,3.897-9.833,7.792-12.988
	C48.55,147.548,52.632,145.692,56.898,145.136z"/>
<path fill="#FEFEFE" d="M85.842,155.154c7.236,0,14.472,0.187,21.522,0.187c-6.123,3.524-12.43,7.05-18.554,10.76
	c0-2.041,0.186-3.897-0.185-5.938C87.882,158.494,86.769,156.824,85.842,155.154z"/>
<path fill="#FEFEFE" d="M13.112,180.387c6.123-3.71,12.431-7.236,18.554-10.76c0,1.854,0,3.896,0.186,5.751
	c0.741,1.669,1.854,3.339,2.782,5.009C27.399,180.387,20.163,180.387,13.112,180.387z"/>
<path fill="#FEFEFE" d="M87.326,176.862c5.195,5.009,10.204,10.018,15.213,15.213c-6.865-1.856-13.915-3.71-20.78-5.38
	c1.299-1.485,2.783-2.783,3.897-4.268C86.399,180.573,86.769,178.717,87.326,176.862z"/>
<path fill="#FEFEFE" d="M41.314,189.107c0.927,0.928,2.041,2.041,2.968,2.968c0.556,0.556,1.114,1.114,1.856,1.298
	c1.67,0.372,3.339,0.928,5.009,1.299c-5.195,5.01-10.204,10.019-15.4,15.028C37.604,202.836,39.458,195.973,41.314,189.107z"/>
<path fill="#FEFEFE" d="M68.03,195.973c1.671-0.743,3.341-1.856,5.01-2.783c-0.186,7.235-0.186,14.286-0.186,21.335
	c-3.71-6.123-7.236-12.245-10.76-18.368C63.948,196.157,65.989,196.157,68.03,195.973z"/>
<path fill-rule="evenodd" clip-rule="evenodd" fill="#009640" d="M130.555,6.728H201.8c8.35,0,15.214,7.236,15.214,15.771v70.317
	c0,8.535-6.865,15.584-15.214,15.584h-71.245c-8.349,0-15.213-7.05-15.213-15.584V22.498
	C115.342,13.964,122.207,6.728,130.555,6.728z"/>
<path fill-rule="evenodd" clip-rule="evenodd" fill="#005394" d="M21.277,6.914h71.429c8.163,0,15.028,7.05,15.028,15.771v70.131
	c0,8.72-6.865,15.771-15.028,15.771H21.277c-8.35,0-15.028-7.051-15.028-15.771V22.685C6.249,13.964,12.927,6.914,21.277,6.914z"/>
<path fill="#FEFEFE" d="M58.012,17.489c2.226-1.485,4.453-2.968,6.865-4.639c0.556,0.929,1.112,1.856,1.67,2.783
	c-2.227,1.485-4.268,2.783-6.494,4.268c0,3.339,0.185,6.679,0.185,10.018c3.154-1.67,6.123-3.339,9.092-5.009
	c0.556,1.114,1.112,2.227,1.67,3.525c-2.412,1.114-4.639,2.412-6.865,3.524c0,2.598,0.185,5.195,0.185,7.793
	c2.041,1.112,3.897,2.411,5.938,3.71c2.412-1.113,4.638-2.412,7.05-3.525c0-2.412,0-4.638,0-7.05c1.299,0,2.412,0,3.526,0
	c0,3.153,0,6.308,0.185,9.462c2.598-1.485,5.195-2.968,7.792-4.638c0.371-0.187,0.742-0.372,0.742-0.743
	c0.186-2.041,0.186-4.082,0.371-6.309c1.114,0.186,2.227,0.186,3.339,0.371c-0.185,2.412-0.37,5.009-0.741,7.607
	c2.597,1.113,5.009,2.226,7.606,3.524c-0.556,0.929-1.112,1.856-1.483,2.97c-2.412-1.299-4.639-2.412-7.051-3.71
	c-2.783,1.854-5.565,3.524-8.534,5.38c2.969,1.67,5.938,3.526,8.906,5.195c-0.742,1.112-1.484,2.226-2.226,3.153
	c-2.227-1.299-4.453-2.782-6.494-4.082c-2.227,1.3-4.453,2.783-6.68,4.082c-0.185,2.412,0,4.824-0.185,7.236
	c2.226,1.485,4.267,2.783,6.494,4.082c2.041-1.113,4.082-2.226,6.123-3.524c0.556,1.112,1.114,2.041,1.67,3.153
	c-2.597,1.485-5.38,3.154-8.163,4.824c2.968,1.485,5.751,3.154,8.719,4.824c2.041-0.928,3.897-2.041,5.938-2.968
	c0.371,0.927,0.927,2.041,1.485,3.154c-2.412,0.927-4.639,2.041-7.051,3.153c0.371,2.783,0.557,5.566,0.742,8.163
	c-1.114,0.187-2.226,0.187-3.339,0.187c0-2.599-0.186-5.195-0.371-7.792c-2.783-1.485-5.751-3.154-8.719-4.639
	c0,3.339,0,6.865-0.186,10.204c-1.299-0.185-2.597-0.185-3.896-0.371c0-2.597,0.371-5.194,0.371-7.792
	c-2.227-1.112-4.639-2.412-6.865-3.524c-2.041,1.112-4.268,2.226-6.309,3.524c-0.185,2.412-0.371,5.01-0.371,7.607
	c2.041,1.113,4.082,2.412,6.123,3.525c-0.556,1.112-1.299,2.041-1.855,2.968c-2.783-1.485-5.381-3.155-8.163-4.639
	c0,3.34,0,6.68,0,10.019c1.854,1.114,3.71,2.412,5.565,3.526c-0.556,0.927-1.299,1.854-1.855,2.783
	c-2.041-1.485-4.268-2.783-6.309-4.268c-2.226,1.485-4.453,3.154-6.678,4.639c-0.742-0.929-1.299-1.856-1.856-2.783
	c2.041-1.299,4.268-2.783,6.494-4.082c0-3.525-0.185-6.865-0.185-10.204c-3.155,1.854-6.123,3.524-9.092,5.194
	c-0.556-1.298-1.112-2.412-1.483-3.71c2.226-1.113,4.453-2.226,6.865-3.524c-0.186-2.412-0.186-4.824-0.371-7.422
	c0.185-0.371-0.371-0.556-0.742-0.741c-1.856-1.114-3.71-2.412-5.751-3.341c-2.041,1.299-4.453,2.227-6.494,3.711
	c0,2.227,0,4.639,0,6.865c-1.299,0-2.412,0-3.526,0c0-3.153,0-6.308,0-9.462c-2.968,1.669-5.751,3.339-8.719,5.009
	c0,2.227-0.186,4.453-0.186,6.68c-1.299-0.187-2.412-0.187-3.524-0.371c0.185-2.412,0.556-5.009,0.741-7.607
	c-2.597-1.113-5.009-2.226-7.606-3.525c0.556-0.927,1.112-1.855,1.67-2.968c2.226,1.298,4.453,2.412,6.865,3.71
	c2.783-1.854,5.751-3.524,8.535-5.38c-2.969-1.669-5.938-3.525-8.906-5.195c0.742-1.112,1.483-2.041,2.226-3.153
	c2.227,1.483,4.453,2.782,6.494,4.267c2.227-1.485,4.453-2.783,6.68-4.267c0-2.412,0-5.01-0.186-7.422
	c-2.041-1.298-4.082-2.597-6.122-3.896c-2.041,1.112-4.082,2.412-6.123,3.524c-0.556-1.112-1.114-2.041-1.67-3.153
	c2.597-1.484,5.38-3.154,8.163-4.824c-2.968-1.485-5.751-3.154-8.719-4.824c-1.856,1.114-3.897,2.041-5.938,2.968
	c-0.371-0.927-0.927-2.041-1.485-2.968c2.412-1.113,4.639-2.227,7.051-3.339c-0.371-2.783-0.557-5.38-0.742-8.163
	c1.114,0,2.226-0.187,3.339-0.187c0,2.598,0.186,5.195,0.186,7.792c2.968,1.484,5.937,3.154,8.905,4.824
	c0-3.524,0.186-7.05,0.186-10.389c1.298,0.185,2.597,0.371,3.896,0.371c0,2.597-0.37,5.194-0.37,7.792
	c2.226,1.112,4.638,2.412,6.864,3.71c2.227-1.298,4.268-2.412,6.494-3.71c0-2.412,0-5.01,0.186-7.607
	c-2.041-1.113-4.082-2.412-6.123-3.525c0.556-0.927,1.299-2.041,1.855-2.968c2.783,1.485,5.381,3.154,8.163,4.639
	c0-3.341,0-6.68,0-10.019c-1.855-1.114-3.71-2.412-5.565-3.526c0.556-0.927,1.299-1.854,1.855-2.783
	C53.93,14.706,55.971,16.191,58.012,17.489z"/>
<path fill="#005394" d="M56.714,32.331c0-1.112,1.854-0.927,2.041,0c0,2.783-0.186,5.382-0.371,7.979
	c4.638,2.968,9.462,5.937,14.1,8.906c2.227-1.298,4.453-2.783,6.865-3.896c0.929-0.372,1.856,1.298,0.929,1.855
	c-2.412,1.299-4.639,2.597-7.051,3.896c-0.185,5.382-0.371,10.576-0.556,15.771c2.226,1.298,4.453,2.597,6.678,4.082
	c0.742,0.186,0.929,1.113,0.371,1.669c-0.556,0.558-1.299,0.187-1.67-0.185c-2.226-1.114-4.267-2.412-6.308-3.711
	c-4.824,2.597-9.463,5.009-14.287,7.606c0,2.412,0,5.01,0,7.422c-0.185,0.556-0.185,1.112-0.37,1.483
	c-0.371,0.743-1.856,0.558-1.856-0.556c0-2.783,0.185-5.566,0.185-8.35c-4.267-2.782-8.348-5.38-12.616-7.978
	c-2.412,1.299-4.823,2.783-7.235,3.896c-0.557,0.558-1.3,0-1.3-0.742c-0.185-0.741,0.557-1.112,1.114-1.298
	c1.67-1.112,3.526-2.041,5.38-2.968c0.186-5.751,0.371-11.318,0.557-16.883c-2.041-1.114-4.082-2.412-6.122-3.712
	c-0.742-0.371-0.371-1.854,0.556-1.854c0.556,0.185,1.114,0.556,1.67,0.742c1.485,0.927,2.968,1.854,4.453,2.782
	c4.824-2.597,9.648-5.194,14.472-7.792C56.527,37.897,56.527,35.114,56.714,32.331z"/>
<path fill="#FEFEFE" d="M43.355,49.771c4.824-2.412,9.462-5.009,14.286-7.421c4.453,2.783,9.091,5.566,13.543,8.535
	C71,56.08,70.813,61.46,70.628,66.841c-4.639,2.597-9.462,5.009-14.101,7.607c-4.638-2.783-9.091-5.751-13.73-8.535
	C42.984,60.533,43.169,55.152,43.355,49.771z"/>
<path fill="#005394" d="M47.25,52.37c3.341-1.856,6.68-3.711,9.834-5.566c3.339,2.041,6.492,3.896,9.647,5.751
	c0,3.897,0,7.607,0,11.318c-3.339,1.854-6.679,3.71-9.833,5.565c-3.339-2.041-6.494-3.896-9.833-5.751
	C47.25,59.791,47.25,56.08,47.25,52.37z"/>
<path fill="#FEFEFE" d="M140.203,15.819c0.927-0.371,1.854-1.669,2.968-1.113c0.742,0.371,1.856,0.742,1.669,1.669
	c-0.185,1.114-1.483,1.114-2.041,1.67c-0.556,0.927-0.556,2.041,0,2.968c0.927,1.484,2.412,2.598,3.896,3.154
	c0.556,0.186,1.114-0.185,1.299-0.743c0-0.927-1.114-1.854-0.556-2.782c0.741-1.3,2.782-0.742,2.782,0.741
	c-0.185,1.113-1.298,2.041-1.112,3.34c-0.186,1.67,1.298,3.153,2.783,3.153c1.112-0.185,0.741-1.483,0.556-2.412
	c-0.742-1.112,0.927-2.412,2.041-1.854c0.556,0.185,0.927,1.113,0.556,1.483c-0.556,1.3-1.299,2.227-1.483,3.525
	c-0.372,1.299,0.556,2.412,1.669,2.783c0.927,0.371,1.483-0.742,1.483-1.484c0.187-0.741-0.185-1.855,0.558-2.226
	c1.112-0.556,2.597,0.742,2.226,1.856c-0.742,0.741-1.854,1.112-2.226,2.411c-0.371,1.3,0.371,2.598,1.298,3.525
	c3.525,3.897,5.938,8.535,7.792,13.359c1.485,3.71,2.227,7.792,1.67,11.874c-1.114,2.227-4.638,1.856-5.751-0.185
	c-1.113-2.412-1.113-5.195-1.485-7.792c-1.112-6.865-3.153-13.916-7.05-19.852c-0.371-0.371-0.927-0.929-1.484-0.742
	c-1.299,0.185-2.041,1.484-3.339,1.854c-1.112,0-1.855-1.483-1.112-2.411c0.927-0.929,2.411-0.929,3.71-0.372
	c0.556-2.412-2.969-4.639-4.824-2.783c-0.742,0.556-1.856,1.299-2.969,0.743c-0.556-0.558-0.741-1.485-0.185-2.227
	c1.114-0.927,2.783,0.927,3.71-0.185c0.187-1.3-1.113-2.227-2.226-2.783c-1.3-0.371-2.412-1.114-3.71-0.742
	c-1.485,0.742-1.485,3.154-3.154,3.71c-1.114-0.185-1.485-1.114-1.856-2.041c-0.372-1.298-1.67-2.412-1.855-3.896
	c0-0.741,0.741-0.928,1.299-1.299c0.185-1.298,0.185-2.597,0.927-3.71C137.791,15.077,139.276,16.747,140.203,15.819z"/>
<path fill="#FEFEFE" d="M184.359,23.612c3.897-1.485,8.535,1.854,8.535,5.938c0,1.483-0.741,2.597-0.556,3.896
	c0.742,2.041,2.783,3.154,3.525,5.195c0.371,1.483-0.557,2.783-1.113,4.082c-1.856,3.154-5.38,4.267-8.535,5.195
	c-4.824,1.298-8.721,4.638-12.06,7.977c-0.371-0.556-0.742-1.298-0.371-1.854c1.113-2.227,3.154-3.71,4.453-5.753
	c1.298-2.411,3.71-4.452,4.082-7.421c0.187-1.298-0.371-2.597-1.298-3.71c-1.113,0-2.226,0-3.154,0.558
	c-2.041,1.483-2.968,3.71-4.267,5.565c-1.856,2.227-1.485,5.38-2.783,7.979c-0.185,0.371-0.371,0.556-0.927,0.371
	c-0.743-0.371-0.927-1.298-1.114-2.227c-1.298-4.638-1.856-9.833-0.742-14.842c0.742-3.339,2.598-6.68,5.195-9.092
	c0.556-0.371,1.298-0.741,2.041-0.927c2.041-0.185,4.082,1.113,6.308,0.742C182.69,25.095,183.247,23.797,184.359,23.612z"/>
<path fill="#FEFEFE" d="M132.967,36.599c2.968-1.298,6.123-2.598,9.462-2.041c2.041,0.185,3.525,1.484,5.01,2.597
	c6.123,3.896,10.389,10.762,11.131,17.997c-3.896-1.67-5.009-6.308-8.35-8.535c-1.298-1.112-3.153-1.67-4.638-0.741
	c-1.856,1.483-1.485,4.638,0.556,5.751c1.484,0.927,2.783,2.226,4.268,3.154c1.67,0.927,3.526,1.854,4.638,3.524
	c0.557,1.113,0.371,2.412-0.556,3.154c-2.597,0.185-5.38-0.556-7.979,0.371c-1.112,0.371-1.854,1.483-1.67,2.597
	c-0.185,1.298,0.743,2.227,1.299,3.339c0.186,1.669-0.741,2.969-1.299,4.268c-0.371,0.743-0.742,1.67,0,2.412
	c1.114,1.299,3.155,1.114,4.453,0.371c2.783-1.484,4.082-4.639,6.68-6.123c0.741-0.371,1.67-0.742,2.411-0.186
	c-0.37,1.298-1.483,2.041-2.411,2.968c-4.453,3.896-5.938,9.648-9.834,13.729c-1.299,1.299-2.597,2.228-4.267,2.97
	c-0.743,0.185-1.485,0.185-2.227,0c-3.153-0.742-5.937-2.97-9.091-3.897c-2.968-0.185-5.38-3.154-5.751-6.123
	c0-2.226,1.298-4.453,2.783-6.123c0.927-1.298,2.226-2.783,1.854-4.453c-0.185-1.298-1.669-2.041-1.854-3.339
	c-0.371-1.856,0.371-3.525,1.483-4.824c1.3-1.669,3.341-2.597,5.381-2.783c5.565-0.371,10.576,2.597,16.141,2.412
	c0-1.298-0.556-2.783-1.669-3.339c-2.783-1.298-5.751-0.927-8.535-0.927c-3.896,0-8.164,0.185-11.688-2.041
	c-1.114-0.742-2.599-1.855-2.412-3.525c0.556-2.041,2.597-2.969,3.339-5.01c0.556-1.112-0.558-1.854-1.114-2.782
	c-1.298-1.3-1.113-3.71,0.371-4.824C129.999,35.672,131.668,36.042,132.967,36.599z"/>
<path fill="#FEFEFE" d="M186.771,51.256c4.268-1.299,8.906-1.299,12.802,0.556c1.67,0.928,3.153,2.227,3.339,4.082
	c0.372,1.114-0.371,2.041-0.556,3.154c0,0.927,0.928,1.485,1.67,1.67c2.041,0.371,4.453,0.371,5.936,2.041
	c1.485,1.67,3.155,4.082,2.227,6.494c-0.928,2.968-3.896,4.638-6.494,6.123c-0.186,1.856-0.742,3.711-2.412,4.824
	c-2.599,1.856-6.309,1.67-8.906-0.185c-3.526-2.412-6.494-5.566-10.205-7.979c-1.298-0.927-2.598-2.041-4.268-2.598
	c-2.412-0.927-5.38-1.298-7.421-3.339c3.155-1.298,6.494-0.556,9.648,0.371c2.412,0.743,4.638,1.67,7.05,2.412
	c0.927,0.371,2.041,0,2.598-0.927c0.927-1.485,0.185-3.71-1.485-4.639c-0.742-0.556-1.856-0.185-2.783-0.37
	c-0.742,0.185-1.484-0.558-1.298-1.114c0-1.298,0.742-2.227,1.485-3.154c-0.743-0.742-1.485-1.298-2.412-1.485
	c-2.598-0.37-5.195,0.558-7.793,1.3c-1.854,0.556-3.153,2.226-4.823,2.968c0-0.371,0-0.927,0.371-1.298
	C176.938,56.265,181.391,52.741,186.771,51.256z"/>
<path fill="#FEFEFE" d="M170.816,68.696c5.38,1.299,10.575,3.339,15.028,6.494c2.597,1.669,4.453,4.082,5.751,6.865
	c0.742,1.483,1.113,3.153,0.742,4.823c-0.742,2.412-2.597,4.639-3.71,6.865c-1.114,1.485-0.743,3.526-1.856,5.01
	c-2.597,4.082-8.348,5.38-12.801,3.71c-2.783-1.113-4.453-4.082-7.421-5.01c-0.558-0.185-1.3-0.185-2.041,0
	c-3.712,1.3-8.35,0.743-11.318-2.226c-1.484-1.485-2.227-3.71-2.227-5.938c-0.185-3.339,0.743-6.679,2.227-9.833
	c1.67-3.339,4.082-6.494,7.236-8.72c0.741-0.557,1.669-1.113,2.782-0.742c0.558,0.371,0.371,1.113,0.371,1.483
	c-0.185,1.485-1.112,2.598-2.041,3.712c-1.299,1.669-1.299,4.082-0.371,6.123c0.557,0.927,1.484,1.854,2.783,1.483
	c1.484-0.185,2.227-1.67,3.71-2.412c1.3,1.485,0.928,3.712,1.669,5.566c0.743,1.113,1.856,2.412,3.341,2.412
	c2.412,0,4.267-2.412,3.71-4.638c-0.371-1.113-1.485-1.855-1.856-2.969c0-0.556-0.185-1.112,0.186-1.298
	c0.928-0.927,2.412-1.114,3.153-1.855c0.371-1.113,0-2.227-0.741-2.969c-1.671-1.669-3.896-2.226-5.195-3.71
	C171.372,70.18,171.187,69.438,170.816,68.696z"/>
</svg>
